<?xml version="1.0" encoding="UTF-8"?>
<svg data-name="Layer 1" version="1.1" viewBox="0 0 54 36" xmlns="http://www.w3.org/2000/svg" xmlns:cc="http://creativecommons.org/ns#" xmlns:dc="http://purl.org/dc/elements/1.1/" xmlns:rdf="http://www.w3.org/1999/02/22-rdf-syntax-ns#">
<metadata>
<rdf:RDF>
<cc:Work rdf:about="">
<dc:format>image/svg+xml</dc:format>
<dc:type rdf:resource="http://purl.org/dc/dcmitype/StillImage"/>
</cc:Work>
</rdf:RDF>
</metadata>
<title>activity-active</title>
<rect x="5" y="4.11" width="48" height="30.89" rx="3" ry="3" fill="#f9f9f9" stroke="#106ebe" stroke-width="2"/>
<rect x="1" y="1" width="48" height="30.89" rx="3" ry="3" fill="#fff" stroke="#106ebe" stroke-width="2"/>
<rect x="6.86" y="18.57" width="17.33" height="2.73" fill="#0078d4"/>
<rect x="6.57" y="13.44" width="17.33" height="2.73" fill="#0078d4"/>
<rect x="6.57" y="8.32" width="17.33" height="2.73" fill="#0078d4"/>
<path d="M38.23,8.63a1,1,0,0,0-.17-1.12h0a.94.94,0,0,0-1.33,0l-5.08,5.21,0,0-.34-1.6a1.61,1.61,0,0,0-2-1.23L29,10l.81,5.78a3.09,3.09,0,0,0,.87,2.28L32,19.43a2.57,2.57,0,0,0,2.08.77" fill="none" opacity=".75" stroke="#106ebe" style="isolation:isolate"/>
<path d="M40.48,8.31A1,1,0,0,0,40.26,8h0a.91.91,0,0,0-1.32,0l-.62.63" fill="none" opacity=".75" stroke="#0078d4" style="isolation:isolate" data-name="Shape"/>
<path d="m37 10-1.81 1.85" fill="none" opacity=".75" stroke="#0078d4" style="isolation:isolate" data-name="Shape"/>
<path d="M43.21,12.25a.94.94,0,0,0-1.24.51l-1.22,2.9h0l2-4.67a1,1,0,0,0-.49-1.26.92.92,0,0,0-1.23.5L39,14.9h0l2.21-5.26a1,1,0,0,0-.48-1.26.93.93,0,0,0-1.24.5l-2.21,5.26h0L39,10.06a1,1,0,0,0-.49-1.27.93.93,0,0,0-1.23.51l-2.85,6.76h0l0,.06-.9-1.36a1.59,1.59,0,0,0-2.34-.37l-.18.14,2.73,4.9a2.94,2.94,0,0,0,1.65,1.92l1.58.7a2.82,2.82,0,0,0,3.76-1.53l1.73-4.09h0l1.23-2.91A1,1,0,0,0,43.21,12.25Z" fill="none" opacity=".75" stroke="#106ebe" style="isolation:isolate" data-name="Shape"/>
</svg>
