<?xml version="1.0" encoding="UTF-8"?>
<svg data-name="Layer 1" viewBox="0 0 18 33" xmlns="http://www.w3.org/2000/svg">
<defs>
<mask id="a" x="0" y="0" width="18" height="33" maskUnits="userSpaceOnUse">
<path d="M3.5,16.5l13.72-14a1.49,1.49,0,0,0,0-2.09,1.44,1.44,0,0,0-2,0L.42,15.46a1.5,1.5,0,0,0,0,2.08l14.75,15a1.45,1.45,0,0,0,1,.43,1.41,1.41,0,0,0,1-.43,1.49,1.49,0,0,0,0-2.09Z" fill="#fff"/>
</mask>
</defs>
<title>Chevron Left</title>
<g data-name="Heading-+-back-+-send">
<path d="M3.5,16.5l13.72-14a1.49,1.49,0,0,0,0-2.09,1.44,1.44,0,0,0-2,0L.42,15.46a1.5,1.5,0,0,0,0,2.08l14.75,15a1.45,1.45,0,0,0,1,.43,1.41,1.41,0,0,0,1-.43,1.49,1.49,0,0,0,0-2.09Z" data-name="path-1"/>
<g mask="url(#a)">
<g data-name="swatch/Black-#000000">
<rect width="18" height="33"/>
</g>
</g>
</g>
</svg>
