<svg xmlns="http://www.w3.org/2000/svg" width="24" height="24" viewBox="0 0 24 24"><path fill="#ffffff" transform="scale(0.0117,-0.0117) translate(2, -2050)" d="M2048 1792L2048 256L1503 256Q1577 311 1638 384L1920 384L1920 1664L1445 1664L1317 1792L731 1792L603 1664L128 1664L128 384L410 384Q471 311 545 256L0 256L0 1792L549 1792L677 1920L1371 1920L1499 1792L2048 1792M1024 1536Q1157 1536 1273.50 1486Q1390 1436 1477 1349Q1564 1262 1614 1145.50Q1664 1029 1664 896Q1664 763 1614 646.50Q1564 530 1477 443Q1390 356 1273.50 306Q1157 256 1024 256Q891 256 774.50 306Q658 356 571 443Q484 530 434 646.50Q384 763 384 896Q384 1029 434 1145.50Q484 1262 571 1349Q658 1436 774.50 1486Q891 1536 1024 1536M1024 384Q1130 384 1223 424.50Q1316 465 1385.50 534.50Q1455 604 1495.50 697Q1536 790 1536 896Q1536 1002 1495.50 1095Q1455 1188 1385.50 1257.50Q1316 1327 1223 1367.50Q1130 1408 1024 1408Q918 1408 825 1367.50Q732 1327 662.50 1257.50Q593 1188 552.50 1095Q512 1002 512 896Q512 790 552.50 697Q593 604 662.50 534.50Q732 465 825 424.50Q918 384 1024 384M1024 1280Q1103 1280 1173 1250Q1243 1220 1295.50 1167.50Q1348 1115 1378 1045Q1408 975 1408 896L1280 896Q1280 949 1260 995.50Q1240 1042 1205 1077Q1170 1112 1123.50 1132Q1077 1152 1024 1152L1024 1280Z"/></svg>