<svg xmlns="http://www.w3.org/2000/svg" width="24" height="24" viewBox="0 0 24 24"><path fill="#ffffff" transform="scale(0.0117,-0.0117) translate(2, -2050)" d="M1024 1536Q1077 1536 1123.50 1516Q1170 1496 1205 1461Q1240 1426 1260 1379.50Q1280 1333 1280 1280Q1280 1227 1260 1180.50Q1240 1134 1205 1099Q1170 1064 1123.50 1044Q1077 1024 1024 1024Q971 1024 924.50 1044Q878 1064 843 1099Q808 1134 788 1180.50Q768 1227 768 1280Q768 1333 788 1379.50Q808 1426 843 1461Q878 1496 924.50 1516Q971 1536 1024 1536M1024 1152Q1051 1152 1074 1162Q1097 1172 1114.50 1189.50Q1132 1207 1142 1230Q1152 1253 1152 1280Q1152 1307 1142 1330Q1132 1353 1114.50 1370.50Q1097 1388 1074 1398Q1051 1408 1024 1408Q997 1408 974 1398Q951 1388 933.50 1370.50Q916 1353 906 1330Q896 1307 896 1280Q896 1253 906 1230Q916 1207 933.50 1189.50Q951 1172 974 1162Q997 1152 1024 1152M1664 1264Q1749 1242 1819.50 1194.50Q1890 1147 1941 1081.50Q1992 1016 2020 936Q2048 856 2048 768Q2048 662 2008 568.50Q1968 475 1898.50 405.50Q1829 336 1735.50 296Q1642 256 1536 256L1536 384Q1615 384 1685 414Q1755 444 1807.50 496.50Q1860 549 1890 618.50Q1920 688 1920 768Q1920 829 1901.50 885.50Q1883 942 1849.50 989.50Q1816 1037 1768.50 1073.50Q1721 1110 1664 1130L1664 768L384 768L384 1131Q327 1111 279.50 1074.50Q232 1038 198.50 990.50Q165 943 146.50 886.50Q128 830 128 769Q128 689 158 619.50Q188 550 240.50 497.50Q293 445 362.50 415Q432 385 512 385L805 385L643 548L733 638L1050 321L733 4L643 94L805 257L512 257Q406 257 312.50 297Q219 337 149.50 406.50Q80 476 40 569.50Q0 663 0 769Q0 856 28 936.50Q56 1017 107 1083Q158 1149 228.50 1196.50Q299 1244 384 1265L384 1792L677 1792L805 1920L1243 1920L1371 1792L1664 1792L1664 1264M1536 1664L1317 1664L1189 1792L859 1792L731 1664L512 1664L512 896L1536 896L1536 1664Z"/></svg>