<svg width="2048px" height="2048px" viewBox="0 0 2048 2048" xmlns="http://www.w3.org/2000/svg" xmlns:xlink="http://www.w3.org/1999/xlink"><path transform="translate(0,2048) scale(1,-1)" d= "M1499 1792L2048 1792L2048 256L0 256L0 1792L549 1792L677 1920L1371 1920L1499 1792ZM1920 384L1920 1664L1445 1664L1317 1792L731 1792L603 1664L128 1664L128 384L1920 384ZM1024 1536Q1130 1536 1223.5 1496Q1317 1456 1386.5 1386.5Q1456 1317 1496 1223.5Q1536 1130 1536 1024Q1536 918 1496 824.5Q1456 731 1386.5 661.5Q1317 592 1223.5 552Q1130 512 1024 512Q918 512 824.5 552Q731 592 661.5 661.5Q592 731 552 824.5Q512 918 512 1024Q512 1130 552 1223.5Q592 1317 661.5 1386.5Q731 1456 824.5 1496Q918 1536 1024 1536ZM1024 640Q1103 640 1173 670.5Q1243 701 1295 753Q1347 805 1377.5 875Q1408 945 1408 1024Q1408 1103 1377.5 1173Q1347 1243 1295 1295Q1243 1347 1173 1377.5Q1103 1408 1024 1408Q945 1408 875 1377.5Q805 1347 753 1295Q701 1243 670.5 1173Q640 1103 640 1024Q640 945 670.5 875Q701 805 753 753Q805 701 875 670.5Q945 640 1024 640ZM320 1536Q346 1536 365 1517Q384 1498 384 1472Q384 1446 365 1427Q346 1408 320 1408Q294 1408 275 1427Q256 1446 256 1472Q256 1498 275 1517Q294 1536 320 1536Z"></path></svg>