<svg xmlns="http://www.w3.org/2000/svg" width="24" height="24" viewBox="0 0 24 24"><path fill="#000000" transform="scale(0.0117,-0.0117) translate(2, -2050)" d="M2048 1792L2048 512L731 512L256 37L256 512L0 512L0 1792L2048 1792M1920 1664L128 1664L128 640L384 640L384 347L677 640L1920 640L1920 1664M512 1024Q485 1024 462 1034Q439 1044 421.50 1061.50Q404 1079 394 1102Q384 1125 384 1152Q384 1179 394 1202Q404 1225 421.50 1242.50Q439 1260 462 1270Q485 1280 512 1280Q539 1280 562 1270Q585 1260 602.50 1242.50Q620 1225 630 1202Q640 1179 640 1152Q640 1125 630 1102Q620 1079 602.50 1061.50Q585 1044 562 1034Q539 1024 512 1024M1024 1024Q997 1024 974 1034Q951 1044 933.50 1061.50Q916 1079 906 1102Q896 1125 896 1152Q896 1179 906 1202Q916 1225 933.50 1242.50Q951 1260 974 1270Q997 1280 1024 1280Q1051 1280 1074 1270Q1097 1260 1114.50 1242.50Q1132 1225 1142 1202Q1152 1179 1152 1152Q1152 1125 1142 1102Q1132 1079 1114.50 1061.50Q1097 1044 1074 1034Q1051 1024 1024 1024M1536 1024Q1509 1024 1486 1034Q1463 1044 1445.50 1061.50Q1428 1079 1418 1102Q1408 1125 1408 1152Q1408 1179 1418 1202Q1428 1225 1445.50 1242.50Q1463 1260 1486 1270Q1509 1280 1536 1280Q1563 1280 1586 1270Q1609 1260 1626.50 1242.50Q1644 1225 1654 1202Q1664 1179 1664 1152Q1664 1125 1654 1102Q1644 1079 1626.50 1061.50Q1609 1044 1586 1034Q1563 1024 1536 1024Z"/></svg>