<?xml version="1.0" encoding="UTF-8"?>
<svg viewBox="0 0 512 512" xmlns="http://www.w3.org/2000/svg">
<g>
<title>background</title>
<rect x="-1" y="-1" width="514" height="514" fill="none"/>
</g>
<g fill="#106ebe">
<title>Layer 1</title>
<path d="m256 274.1c-75.6 0-137.1-61.5-137.1-137.1s61.5-137 137.1-137 137.1 61.5 137.1 137.1-61.5 137-137.1 137zm0-253.7c-64.3 0-116.6 52.3-116.6 116.6s52.3 116.7 116.6 116.7c64.3 0 116.6-52.3 116.6-116.6s-52.3-116.7-116.6-116.7z"/>
<path d="m493.9 512c-5.6 0-10.2-4.6-10.2-10.2 0-125.5-102.1-227.6-227.6-227.6-125.5 0-227.6 102.1-227.6 227.6 0 5.6-4.6 10.2-10.2 10.2s-10.2-4.6-10.2-10.2c0-66.3 25.8-128.6 72.7-175.4s109.2-72.7 175.4-72.7 128.6 25.8 175.4 72.7 72.7 109.2 72.7 175.4c-0.19995 5.6-4.8 10.2-10.4 10.2z"/>
</g>
</svg>
